<svg width="150" height="144" viewBox="0 0 150 144" fill="none" xmlns="http://www.w3.org/2000/svg">
<g clip-path="url(#clip0_12_2803)">
<path d="M137.973 111.667H12.0267C6.59768 111.667 2.19641 107.451 2.19641 102.25V100.396C2.19641 95.1954 6.59739 90.9791 12.0267 90.9791H137.973C143.402 90.9791 147.803 95.1951 147.803 100.396V102.25C147.803 107.451 143.402 111.667 137.973 111.667Z" fill="#E94444"/>
<path d="M137.973 74.6868H12.0267C6.59768 74.6868 2.19641 70.4707 2.19641 65.2696V63.4156C2.19641 58.2148 6.59739 53.9985 12.0267 53.9985H137.973C143.402 53.9985 147.803 58.2145 147.803 63.4156V65.2696C147.803 70.4707 143.402 74.6868 137.973 74.6868Z" fill="#9E5528"/>
<path d="M147.803 100.395V102.25C147.803 107.452 143.404 111.669 137.973 111.669H132.221C137.651 111.669 142.05 107.452 142.05 102.25V100.395C142.05 95.1959 137.651 90.9788 132.221 90.9788H137.973C143.404 90.9791 147.803 95.1962 147.803 100.395Z" fill="#D83131"/>
<path d="M147.803 63.4153V65.2699C147.803 70.4719 143.404 74.6862 137.973 74.6862H132.221C137.651 74.6862 142.05 70.4719 142.05 65.2699V63.4153C142.05 58.2162 137.651 53.9991 132.221 53.9991H137.973C143.404 53.9991 147.803 58.2162 147.803 63.4153Z" fill="#904D24"/>
<path d="M74.9999 2.58467C25.9028 3.26554 9.40717 28.7788 3.96118 43.603C2.09526 48.6826 6.07348 53.9985 11.695 53.9985H74.9999H138.304C143.967 53.9985 147.895 48.629 146.006 43.5146C140.527 28.6778 124 3.26414 74.9999 2.58467Z" fill="#FE9738"/>
<path d="M138.304 53.9991H137.604C139.511 51.9621 140.296 48.9964 139.233 46.1121C133.753 31.2724 117.226 5.86046 68.2257 5.18156C55.5495 5.35556 45.0436 7.18768 36.3451 10.0636C46.2093 5.72322 58.8386 2.80805 75 2.58353C124 3.26524 140.527 28.6772 146.007 43.5141C147.894 48.6287 143.966 53.9991 138.304 53.9991Z" fill="#FE860A"/>
<path d="M137.973 111.667H75H12.0266C12.0266 111.667 7.68338 131.759 32.3994 139.663C36.6334 141.017 41.0534 141.647 45.486 141.647H75H104.514C108.946 141.647 113.366 141.017 117.6 139.663C142.317 131.759 137.973 111.667 137.973 111.667Z" fill="#FE9738"/>
<path d="M117.6 139.662C113.365 141.017 108.945 141.648 104.514 141.648H97.8422C102.277 141.648 106.696 141.017 110.931 139.662C135.645 131.758 131.301 111.669 131.301 111.669H137.973C137.973 111.669 142.317 131.758 117.6 139.662Z" fill="#FE860A"/>
<path d="M138.204 94.7301C138.204 99.4316 132.501 101.981 128.709 98.9952C127.151 97.7679 125.31 96.7957 122.393 96.7957C114.489 96.7957 114.489 102.794 106.584 102.794C98.6798 102.794 98.6798 96.7957 90.7755 96.7957C82.8715 96.7957 82.8715 102.794 74.9672 102.794C67.0632 102.794 67.0632 96.7957 59.1592 96.7957C51.2546 96.7957 51.2546 102.794 43.3503 102.794C35.4463 102.794 35.4463 96.7957 27.542 96.7957C24.6261 96.7957 22.7859 97.7676 21.2279 98.9941C17.436 101.979 11.7334 99.431 11.7334 94.7292V83.6024H138.204V94.7301H138.204Z" fill="#BBEC6C"/>
<path d="M138.205 83.6026V94.7303C138.205 99.1299 133.211 101.644 129.465 99.5029C131.12 98.577 132.309 96.8796 132.309 94.7303V83.6026H138.205Z" fill="#A2E62E"/>
<path d="M11.7964 74.6868V83.6851H25.3547C28.1754 83.6851 30.4617 85.8757 30.4617 88.5775V114.494C30.4617 117.948 33.385 120.749 36.9911 120.749C40.5973 120.749 43.5205 117.948 43.5205 114.494V88.5775C43.5205 85.8754 45.8071 83.6851 48.6275 83.6851H138.203V74.6868H11.7964Z" fill="#FEE45A"/>
<path d="M132.309 74.6859H138.205V83.684H132.309V74.6859Z" fill="#FEDF30"/>
<path d="M54.7342 24.2201C55.515 24.2201 56.2714 23.8202 56.6687 23.1158L58.5741 19.7381C59.151 18.7156 58.7534 17.4389 57.6861 16.8863C56.618 16.3337 55.2858 16.7151 54.7093 17.737L52.8038 21.1147C52.227 22.1371 52.6245 23.4141 53.6918 23.9664C54.0237 24.1385 54.3812 24.2201 54.7342 24.2201Z" fill="black"/>
<path d="M77.1703 22.3462V18.5068C77.1703 17.3446 76.1869 16.4025 74.9737 16.4025C73.7605 16.4025 72.777 17.3446 72.777 18.5068V22.3462C72.777 23.5084 73.7605 24.4505 74.9737 24.4505C76.1869 24.4505 77.1703 23.5084 77.1703 22.3462Z" fill="black"/>
<path d="M95.2661 24.1918C95.6402 24.1918 96.0193 24.1 96.3662 23.9075C97.4156 23.3243 97.773 22.0366 97.1642 21.0313L95.1536 17.71C94.5448 16.7047 93.2006 16.3626 92.1512 16.9455C91.1018 17.5287 90.7444 18.8164 91.3532 19.8217L93.3638 23.143C93.7713 23.8157 94.5084 24.1918 95.2661 24.1918Z" fill="black"/>
<path d="M150 65.2696V63.4156C150 59.4851 147.933 56.0097 144.788 53.9295C145.528 53.3567 146.196 52.682 146.767 51.9079C148.716 49.2681 149.205 45.8679 148.077 42.813C145.352 35.4346 139.69 24.8092 128.186 16.0904C114.923 6.03785 97.0392 0.78566 75.0316 0.480588C75.0105 0.480307 74.9892 0.480307 74.9681 0.480588C65.0215 0.61839 55.8073 1.78423 47.5816 3.94556C46.4118 4.25288 45.7233 5.41086 46.0441 6.53152C46.3649 7.65218 47.5734 8.31228 48.7436 8.0044C56.6027 5.93934 65.4363 4.82401 74.9997 4.6893C122.523 5.36007 138.589 29.7406 143.935 44.2165C144.598 46.0116 144.322 47.9293 143.179 49.4783C142.046 51.0137 140.269 51.8944 138.304 51.8944H11.695C9.72246 51.8944 7.93594 51.0087 6.79424 49.464C5.66602 47.938 5.38887 46.0562 6.0334 44.3016C9.93017 33.6939 18.8789 19.3199 39.3806 11.0832C40.4994 10.6336 41.0262 9.40066 40.5568 8.32884C40.0875 7.25674 38.7996 6.75296 37.6816 7.20201C27.699 11.2126 19.3459 17.007 12.8549 24.4242C8.07861 29.8815 4.38926 36.0991 1.88936 42.9045C0.765527 45.9642 1.24629 49.2417 3.20918 51.8964C3.78076 52.6699 4.46045 53.3485 5.21748 53.9261C2.06865 56.006 0 59.4831 0 63.4156V65.2696C0 70.8263 4.12764 75.4765 9.59971 76.5551L9.55576 89.1217C4.10596 90.2166 0 94.8549 0 100.396V102.25C0 107.804 4.12324 112.452 9.59092 113.534C9.44355 115.748 9.51914 119.342 10.8521 123.341C14.4448 134.118 24.1746 139.251 31.7039 141.659C36.046 143.047 40.6831 143.751 45.4863 143.751H104.514C109.317 143.751 113.954 143.047 118.296 141.659C125.826 139.251 135.555 134.118 139.148 123.341C140.481 119.343 140.556 115.748 140.409 113.534C145.877 112.452 150 107.804 150 102.25V100.396C150 94.8401 145.872 90.1938 140.4 89.1155V76.5551C145.872 75.4768 150 70.8263 150 65.2696ZM4.39336 102.25V100.396C4.39336 97.1984 6.5499 94.4797 9.54082 93.489L9.53642 94.7292C9.53642 97.7162 11.2852 100.363 14.0997 101.638C16.9307 102.92 20.1967 102.529 22.6222 100.62C23.7568 99.7266 25.1382 98.9 27.5417 98.9C27.7945 98.9 28.0327 98.9099 28.265 98.9236V109.563H12.0267C7.81758 109.563 4.39336 106.282 4.39336 102.25ZM91.9301 85.7895H136.007V94.7301C136.007 96.0932 135.241 97.2534 133.96 97.8335C132.661 98.4212 131.22 98.2478 130.104 97.3693C128.52 96.1224 126.213 94.691 122.393 94.691C117.676 94.691 115.258 96.526 113.125 98.1451C111.252 99.5666 109.772 100.689 106.584 100.689C103.397 100.689 101.917 99.5666 100.044 98.1451C97.9104 96.5262 95.4923 94.691 90.7755 94.691C86.0587 94.691 83.535 96.6062 81.5071 98.1451C79.6339 99.5666 78.1544 100.689 74.9672 100.689C71.7797 100.689 70.3002 99.5666 68.4272 98.1451C66.3996 96.6062 63.8757 94.691 59.1592 94.691C54.4424 94.691 52.0245 96.526 49.8908 98.1451C48.5555 99.1585 47.4149 100.016 45.7175 100.427V88.5775C45.7175 87.0401 47.0229 85.7895 48.6278 85.7895H81.6296C82.8428 85.7895 83.8263 84.8473 83.8263 83.6851C83.8263 82.5229 82.8428 81.5808 81.6296 81.5808H48.6275C44.6001 81.5808 41.3238 84.7194 41.3238 88.5775V114.494C41.3238 116.782 39.3803 118.644 36.9911 118.644C34.602 118.644 32.6584 116.782 32.6584 114.494V88.5775C32.6584 84.7194 29.3818 81.5808 25.3547 81.5808H13.9931V76.7911H136.007V81.5808H91.9301C90.7169 81.5808 89.7334 82.5229 89.7334 83.6851C89.7334 84.8473 90.7169 85.7895 91.9301 85.7895ZM25.3544 85.7895C26.9593 85.7895 28.265 87.0401 28.265 88.5775V94.7087C28.0298 94.6983 27.7904 94.691 27.5417 94.691C23.7231 94.691 21.416 96.1216 19.8328 97.3679C18.7166 98.2464 17.2755 98.4201 15.9765 97.8321C14.6947 97.252 13.9295 96.0918 13.9295 94.7289V85.7895H25.3544ZM134.963 122.061C132.529 129.363 126.453 134.613 116.905 137.666C113.012 138.911 108.843 139.543 104.514 139.543H45.4863C41.1568 139.543 36.9879 138.911 33.0952 137.666C14.3906 131.685 13.6072 118.472 13.962 113.771H28.2653V114.493C28.2653 119.103 32.1797 122.853 36.9914 122.853C41.8031 122.853 45.7175 119.103 45.7175 114.493V113.771H136.027C136.151 115.569 136.106 118.63 134.963 122.061ZM145.607 100.396V102.25C145.607 106.282 142.182 109.563 137.973 109.563H45.7172V104.722C48.9384 104.23 50.8755 102.767 52.6184 101.444C54.4916 100.023 55.9714 98.9 59.1589 98.9C62.3464 98.9 63.8259 100.023 65.6988 101.444C67.7268 102.983 70.2504 104.898 74.9669 104.898C79.6834 104.898 82.1016 103.063 84.235 101.444C86.1082 100.023 87.5877 98.9 90.7752 98.9C93.963 98.9 95.4425 100.023 97.3157 101.444C99.4491 103.063 101.867 104.898 106.584 104.898C111.301 104.898 113.719 103.063 115.852 101.444C117.726 100.023 119.205 98.9 122.393 98.9C124.797 98.9 126.179 99.7271 127.314 100.621C129.739 102.531 133.005 102.921 135.836 101.639C138.651 100.365 140.4 97.7176 140.4 94.7303V93.4651C143.423 94.4387 145.607 97.1768 145.607 100.396ZM137.973 72.5824H12.0267C7.81758 72.5824 4.39307 69.3018 4.39307 65.2696V63.4156C4.39307 59.3835 7.81758 56.1029 12.0267 56.1029H137.973C142.182 56.1029 145.607 59.3835 145.607 63.4156V65.2696C145.607 69.3018 142.182 72.5824 137.973 72.5824Z" fill="black"/>
</g>
<defs>
<clipPath id="clip0_12_2803">
<rect width="150" height="143.696" fill="white" transform="translate(0 0.268112)"/>
</clipPath>
</defs>
</svg>
