<svg width="150" height="131" viewBox="0 0 150 131" fill="none" xmlns="http://www.w3.org/2000/svg">
<path d="M2.19446 17.5834H147.806V103.311H2.19446V17.5834Z" fill="#F9F6F9"/>
<path d="M141.375 17.5834H147.805V103.311H141.375V17.5834Z" fill="#DDDAEC"/>
<path d="M147.806 17.5835H2.19446V7.31726C2.19446 4.551 4.53552 2.30833 7.42314 2.30833H142.577C145.464 2.30833 147.806 4.551 147.806 7.31726V17.5835H147.806Z" fill="#FFE07D"/>
<path d="M142.577 2.30833H136.146C139.033 2.30833 141.375 4.551 141.375 7.31726V17.5835H147.806V7.31726C147.806 4.551 145.465 2.30833 142.577 2.30833Z" fill="#FFD064"/>
<path d="M141.521 127.924H8.4797C5.00864 127.924 2.19446 125.228 2.19446 121.903V103.311H147.806V121.903C147.806 125.228 144.992 127.924 141.521 127.924Z" fill="#95D6A4"/>
<path d="M141.609 103.311V121.895C141.609 125.224 138.799 127.924 135.333 127.924H141.529C144.996 127.924 147.806 125.224 147.806 121.895V103.311H141.609Z" fill="#78C2A4"/>
<path d="M75.0002 73.7033C88.1452 73.7033 98.8013 63.495 98.8013 50.9025C98.8013 38.3099 88.1452 28.1016 75.0002 28.1016C61.8551 28.1016 51.199 38.3099 51.199 50.9025C51.199 63.495 61.8551 73.7033 75.0002 73.7033Z" fill="#FFE07D"/>
<path d="M75.0002 28.1016C73.7002 28.1016 72.4256 28.2053 71.1824 28.3973C82.5117 30.1478 91.1655 39.5554 91.1655 50.9025C91.1655 62.2495 82.5117 71.6569 71.1824 73.4073C72.4259 73.5996 73.7002 73.7031 75.0002 73.7031C88.1453 73.7031 98.8013 63.4949 98.8013 50.9022C98.8013 38.3098 88.1453 28.1016 75.0002 28.1016Z" fill="#FFD064"/>
<path d="M75.0002 65.4449C81.1429 65.4449 86.1226 60.6745 86.1226 54.7896H63.8774C63.8774 60.6745 68.8574 65.4449 75.0002 65.4449Z" fill="#DD636E"/>
<path d="M51.1779 85.7166H98.8224C100.035 85.7166 101.017 84.7756 101.017 83.6143C101.017 82.4531 100.035 81.5121 98.8224 81.5121H51.1779C49.9656 81.5121 48.9834 82.4531 48.9834 83.6143C48.9834 84.7756 49.9659 85.7166 51.1779 85.7166Z" fill="black"/>
<path d="M114.451 90.9363H35.5492C34.337 90.9363 33.3547 91.8772 33.3547 93.0385C33.3547 94.1998 34.337 95.1408 35.5492 95.1408H114.451C115.663 95.1408 116.646 94.1998 116.646 93.0385C116.646 91.8772 115.663 90.9363 114.451 90.9363Z" fill="black"/>
<path d="M13.7496 7.84358C12.5374 7.84358 11.5552 8.78454 11.5552 9.94582C11.5552 11.1071 12.5374 12.0481 13.7496 12.0481H16.8596C18.0719 12.0481 19.0541 11.1071 19.0541 9.94582C19.0541 8.78454 18.0719 7.84358 16.8596 7.84358H13.7496Z" fill="black"/>
<path d="M26.0559 7.84358C24.8437 7.84358 23.8615 8.78454 23.8615 9.94582C23.8615 11.1071 24.8437 12.0481 26.0559 12.0481H29.1659C30.3781 12.0481 31.3604 11.1071 31.3604 9.94582C31.3604 8.78454 30.3781 7.84358 29.1659 7.84358H26.0559Z" fill="black"/>
<path d="M38.3619 7.84358C37.1497 7.84358 36.1675 8.78454 36.1675 9.94582C36.1675 11.1071 37.1497 12.0481 38.3619 12.0481H41.4719C42.6842 12.0481 43.6664 11.1071 43.6664 9.94582C43.6664 8.78454 42.6842 7.84358 41.4719 7.84358H38.3619Z" fill="black"/>
<path d="M142.577 0.206055H111.386C110.174 0.206055 109.192 1.14701 109.192 2.30829C109.192 3.46957 110.174 4.41053 111.386 4.41053H142.577C144.25 4.41053 145.611 5.71447 145.611 7.31722V15.4812H4.38893V7.3175C4.38893 5.71475 5.75009 4.41081 7.42315 4.41081H102.601C103.813 4.41081 104.795 3.46985 104.795 2.30857C104.795 1.1473 103.813 0.206335 102.601 0.206335H7.42315C3.33003 0.206055 0 3.39613 0 7.3175V121.895C0 126.378 3.80023 130.026 8.47152 130.026H87.1692C88.3814 130.026 89.3636 129.085 89.3636 127.924C89.3636 126.763 88.3814 125.822 87.1692 125.822H8.47152C6.22058 125.822 4.38893 124.06 4.38893 121.895V105.414H145.611V121.895C145.611 124.06 143.78 125.822 141.529 125.822H95.9315C94.7193 125.822 93.7371 126.763 93.7371 127.924C93.7371 129.085 94.7193 130.026 95.9315 130.026H141.529C146.2 130.026 150 126.378 150 121.895V7.3175C150 3.39613 146.67 0.206055 142.577 0.206055ZM4.38893 101.209V19.6859H145.611V101.209H4.38893V101.209Z" fill="black"/>
<path d="M80.3938 109.861L73.0055 116.939L69.7697 113.947C68.8981 113.14 67.5085 113.164 66.667 113.999C65.8255 114.835 65.8495 116.165 66.7217 116.972L71.5086 121.399C71.934 121.792 72.4835 121.989 73.0327 121.989C73.5948 121.989 74.1563 121.783 74.5847 121.373L83.4977 112.834C84.3547 112.013 84.3547 110.682 83.4977 109.861C82.6401 109.041 81.2509 109.04 80.3938 109.861Z" fill="black"/>
<path d="M69.4605 44.7704V42.0206C69.4605 40.8594 68.4782 39.9184 67.266 39.9184C66.0538 39.9184 65.0715 40.8594 65.0715 42.0206V44.7704C65.0715 45.9316 66.0538 46.8726 67.266 46.8726C68.4782 46.8726 69.4605 45.9313 69.4605 44.7704Z" fill="black"/>
<path d="M84.9287 44.7704V42.0206C84.9287 40.8594 83.9465 39.9184 82.7343 39.9184C81.522 39.9184 80.5398 40.8594 80.5398 42.0206V44.7704C80.5398 45.9316 81.522 46.8726 82.7343 46.8726C83.9465 46.8726 84.9287 45.9313 84.9287 44.7704Z" fill="black"/>
<path d="M61.6829 54.7896C61.6829 61.8243 67.6568 67.5474 75.0001 67.5474C82.3433 67.5474 88.3173 61.8243 88.3173 54.7896C88.3173 53.6284 87.335 52.6874 86.1228 52.6874H63.8776C62.6654 52.6874 61.6829 53.6284 61.6829 54.7896ZM83.6553 56.8919C82.6751 60.5952 79.166 63.3427 75.0001 63.3427C70.8341 63.3427 67.3253 60.5949 66.3448 56.8916H83.6553V56.8919Z" fill="black"/>
<path d="M56.1584 64.9824C57.1778 64.3545 57.4731 63.0537 56.8176 62.0774C54.5778 58.7399 53.3937 54.8757 53.3937 50.9025C53.3937 39.4893 63.0865 30.2039 75.0004 30.2039C86.9143 30.2039 96.6071 39.4893 96.6071 50.9025C96.6071 62.3156 86.9143 71.6011 75.0004 71.6011C70.4011 71.6011 66.0081 70.2313 62.295 67.6402C61.3163 66.9563 59.9429 67.1626 59.2292 68.1016C58.5156 69.04 58.7309 70.3549 59.7108 71.0385C64.1791 74.1574 69.4663 75.8058 75.0004 75.8058C89.3344 75.8058 100.996 64.6346 100.996 50.9028C100.996 37.1709 89.3347 25.9997 75.0004 25.9997C60.6662 25.9997 49.0048 37.1709 49.0048 50.9028C49.0048 55.6841 50.4297 60.3342 53.126 64.3512C53.7814 65.3275 55.1387 65.61 56.1584 64.9824Z" fill="black"/>
</svg>
