<svg width="150" height="137" viewBox="0 0 150 137" fill="none" xmlns="http://www.w3.org/2000/svg">
<path fill-rule="evenodd" clip-rule="evenodd" d="M110.839 60.5601H147.803V72.8613C147.803 75.9027 145.212 78.3868 142.039 78.3868H128.744L120.813 82.2245L110.839 78.3868V60.5601Z" fill="#FFE07D"/>
<path fill-rule="evenodd" clip-rule="evenodd" d="M110.839 78.3868H128.744V86.2772C128.744 88.1721 127.124 89.7166 125.156 89.7166H66.8604C66.8604 84.7563 66.8604 82.2324 70.8216 82.2324L78.711 82.2245C83.6771 82.2166 86.9326 80.9983 88.7513 78.3868H110.839Z" fill="#6F6571"/>
<path fill-rule="evenodd" clip-rule="evenodd" d="M73.8916 89.7166H125.156C128.162 94.7328 130.579 100.76 128.495 112.289C125.006 100.919 89.5792 105.457 85.9417 118.579H46.8518C45.3735 115.37 43.9784 112.201 42.7576 109H53.7779C76.0672 100.943 68.9003 104.534 73.8916 89.7166Z" fill="#FFE07D"/>
<path fill-rule="evenodd" clip-rule="evenodd" d="M70.7276 58.8961C71.4917 62.7498 72.5297 66.5476 73.6925 69.7802L84.9612 74.0097L97.5267 69.7799C97.0866 47.0008 88.2006 36.0769 80.6435 32.542C77.9194 30.555 75.1292 29.8067 75.1292 29.8067C75.1292 29.8067 71.4586 35.4322 71.2676 35.4322C69.8558 38.6488 69.3243 42.8449 69.4157 47.3752L70.7276 58.8961Z" fill="#ECEAEC"/>
<path fill-rule="evenodd" clip-rule="evenodd" d="M97.5266 69.7799H73.6925C68.2031 70.3533 61.4514 74.358 61.4514 86.7627V99.7646H73.8917V89.7166C73.8917 84.7563 73.8917 82.2324 77.8529 82.2324L85.7423 82.2245C90.7084 82.2166 93.9639 80.9983 95.7826 78.3868C97.1859 76.3725 97.7259 73.5301 97.5266 69.7799Z" fill="#FF8086"/>
<path fill-rule="evenodd" clip-rule="evenodd" d="M97.5267 69.7799C97.0866 47.0008 88.2006 36.0768 80.6435 32.542C79.5223 33.2984 78.2766 33.9195 76.9064 34.3811C83.5998 39.23 90.31 50.0661 90.692 69.7799H97.5267Z" fill="#DAD8DB"/>
<path fill-rule="evenodd" clip-rule="evenodd" d="M97.5266 69.7799H90.692C90.8912 73.5301 90.3515 76.3725 88.9479 78.3868C87.8018 80.0348 86.0745 81.4283 83.7076 82.2245H85.7423C90.7084 82.2166 93.9638 80.9983 95.7826 78.3868C97.1859 76.3725 97.7258 73.5301 97.5266 69.7799Z" fill="#F76672"/>
<path fill-rule="evenodd" clip-rule="evenodd" d="M116.602 42.7093H142.039C145.211 42.7093 147.802 45.1934 147.802 48.2349V57.3753H110.839V48.2349C110.839 45.1934 113.43 42.7093 116.602 42.7093Z" fill="#FFE07D"/>
<path fill-rule="evenodd" clip-rule="evenodd" d="M110.839 54.6203H147.803V63.3069H110.839V54.6203Z" fill="#FF8086"/>
<path fill-rule="evenodd" clip-rule="evenodd" d="M140.088 54.6203H144.821H147.803V48.2349C147.803 46.1569 146.59 44.3416 144.821 43.402C143.991 42.9642 143.044 42.7093 142.039 42.7093H134.324C137.497 42.7093 140.088 45.1934 140.088 48.2349V54.6203Z" fill="#FFC269"/>
<path fill-rule="evenodd" clip-rule="evenodd" d="M140.088 63.3069H144.821H147.803V60.5601V57.3752V54.6203H144.821H140.088V57.3752V60.5601V63.3069Z" fill="#F76672"/>
<path fill-rule="evenodd" clip-rule="evenodd" d="M140.088 63.3069V72.8613C140.088 75.9027 137.497 78.3868 134.324 78.3868H142.039C143.044 78.3868 143.991 78.1401 144.821 77.702C146.59 76.7545 147.803 74.9392 147.803 72.8613V63.3069H144.821H140.088Z" fill="#FFC269"/>
<path fill-rule="evenodd" clip-rule="evenodd" d="M85.9415 118.579C85.9415 106.803 95.6827 97.424 107.7 97.424C117.474 97.424 125.746 103.634 128.495 112.289C129.059 114.064 129.391 115.951 129.45 117.91C129.475 118.674 128.926 118.579 128.179 118.579C114.103 118.579 100.018 118.571 85.9415 118.579Z" fill="#FF8086"/>
<path fill-rule="evenodd" clip-rule="evenodd" d="M91.4144 118.579H124.533C124.06 127.13 116.827 133.93 107.974 133.93C99.121 133.929 91.8876 127.13 91.4144 118.579Z" fill="#6F6571"/>
<path fill-rule="evenodd" clip-rule="evenodd" d="M7.31339 115.195L35.8067 121.477C33.9961 129.017 26.1483 133.73 18.2839 131.995C10.4109 130.259 5.50313 122.735 7.31339 115.195Z" fill="#6F6571"/>
<path fill-rule="evenodd" clip-rule="evenodd" d="M5.17908 107.544C9.20681 101.93 16.1994 98.674 23.5075 99.3745C36.3964 101.986 40.5902 109.367 41.429 118.571C41.4123 119.821 41.2711 121.079 40.9889 122.337C40.906 122.687 40.6649 122.544 40.2665 122.456L35.8069 121.477L7.31365 115.195L5.17937 114.726L2.19812 114.065C2.77087 111.66 3.80066 109.462 5.17908 107.544Z" fill="#ECEAEC"/>
<path fill-rule="evenodd" clip-rule="evenodd" d="M23.4826 99.3428L34.9928 61.1891L40.1748 58.9677L45.9715 61.1891C38.356 81.4126 40.4821 95.529 45.6226 109.001C46.8516 112.201 48.2467 115.37 49.7168 118.579H41.4372L23.4826 99.3428Z" fill="#FF8086"/>
<path fill-rule="evenodd" clip-rule="evenodd" d="M59.1261 18.4096L72.6293 15.6547C73.9995 15.7743 77.9195 18.9271 77.9195 20.9016L75.046 34.8987C73.8501 35.2411 72.5795 35.4322 71.2673 35.4322C64.0755 35.4322 58.2457 29.8351 58.2457 22.94C58.2457 21.3394 58.5531 19.8106 59.1261 18.4096Z" fill="#FFECE4"/>
<path fill-rule="evenodd" clip-rule="evenodd" d="M54.7661 18.4096C54.7661 9.50805 62.124 2.30251 71.2093 2.30251C80.2945 2.30251 87.6524 9.50805 87.6524 18.4096C87.6524 24.2854 85.161 29.5087 80.6435 32.542C79.0324 33.6329 77.1554 34.437 75.0463 34.8987V20.9015C75.0463 18.9269 73.9998 18.5289 72.6296 18.4093H59.1264H54.7661V18.4096Z" fill="#FF8086"/>
<path fill-rule="evenodd" clip-rule="evenodd" d="M62.6057 4.68303C65.1053 3.17029 68.0534 2.30251 71.2093 2.30251C80.2945 2.30251 87.6524 9.50806 87.6524 18.4096C87.6524 24.2854 85.161 29.5087 80.6434 32.542C79.4973 33.3144 78.2267 33.9433 76.8316 34.405C80.17 31.1646 81.9805 26.5147 81.9805 21.3871C81.9805 12.0876 74.2822 4.54747 64.79 4.54747C64.0506 4.54775 63.3199 4.5876 62.6057 4.68303Z" fill="#F76672"/>
<path fill-rule="evenodd" clip-rule="evenodd" d="M61.4513 99.7646H73.8917V107.273C73.8917 108.881 72.9782 109 71.6329 109H53.7779C53.4208 101.468 58.1792 99.7646 61.4513 99.7646Z" fill="#6F6571"/>
<path fill-rule="evenodd" clip-rule="evenodd" d="M45.6225 109.001C40.4821 95.529 38.356 81.4126 45.9714 61.1891H41.7029C41.6862 61.1891 41.6698 61.1891 41.6531 61.1891H40.1168C32.5013 81.4126 34.6192 95.529 39.7678 109.001C40.9886 112.201 42.3837 115.37 43.8621 118.579H46.8518H49.717C48.2469 115.37 46.8518 112.201 45.6225 109.001Z" fill="#F76672"/>
<path fill-rule="evenodd" clip-rule="evenodd" d="M41.4287 118.571L23.5072 99.3745C21.6554 99.1994 19.8199 99.2709 18.051 99.5816L35.2749 118.029C35.2582 119.104 35.1504 120.195 34.9345 121.286L35.8063 121.477L40.2659 122.456C40.6646 122.544 40.9055 122.687 40.9884 122.337C41.2711 121.079 41.4123 119.821 41.4287 118.571Z" fill="#DAD8DB"/>
<path fill-rule="evenodd" clip-rule="evenodd" d="M125.156 89.7166H73.8917V94.0398H116.013C119.442 94.0398 121.07 95.4571 122.407 98.3313C123.562 100.824 123.586 101.635 124.11 104.645C126.078 106.835 127.589 109.43 128.495 112.289C130.579 100.76 128.162 94.7328 125.156 89.7166Z" fill="#FFC269"/>
<path fill-rule="evenodd" clip-rule="evenodd" d="M124.11 104.646C120.124 100.211 114.252 97.424 107.7 97.424C106.055 97.424 104.461 97.5991 102.925 97.9255C112.732 100.051 119.592 108.348 119.891 117.91C119.908 118.436 119.658 118.555 119.26 118.579H124.533H128.179C128.926 118.579 129.475 118.674 129.45 117.91C129.392 115.951 129.059 114.065 128.495 112.289C128.478 112.233 128.461 112.185 128.445 112.138C128.445 112.138 128.445 112.138 128.445 112.13C127.531 109.335 126.044 106.795 124.11 104.646Z" fill="#F76672"/>
<path fill-rule="evenodd" clip-rule="evenodd" d="M34.9345 121.286L7.31338 115.195C7.00605 116.445 6.89824 117.703 6.94804 118.929L28.8724 123.762L29.736 123.953C28.9222 127.377 26.8544 130.219 24.1055 132.138C29.7111 131.19 34.4531 127.13 35.8066 121.477L34.9345 121.286Z" fill="#5D5360"/>
<path fill-rule="evenodd" clip-rule="evenodd" d="M119.26 118.579H91.4142C91.5056 120.251 91.8627 121.859 92.4358 123.364H111.835H117.109C116.901 127.106 115.406 130.506 113.048 133.157C119.451 131.143 124.16 125.418 124.533 118.579H119.26Z" fill="#5D5360"/>
<path fill-rule="evenodd" clip-rule="evenodd" d="M128.744 86.2772V78.3868H117.491V86.2772C117.491 88.1721 115.871 89.7166 113.903 89.7166H125.156C127.124 89.7166 128.744 88.1721 128.744 86.2772Z" fill="#5D5360"/>
<path fill-rule="evenodd" clip-rule="evenodd" d="M58.3122 21.6023H69.4072C70.7774 21.7219 71.8239 22.1277 71.8239 24.1024V35.4165C72.9366 35.3688 74.0162 35.1936 75.046 34.899V20.9015C75.046 18.9268 73.9995 18.5289 72.6293 18.4093H59.1261C58.7191 19.4127 58.4367 20.4876 58.3122 21.6023Z" fill="#FFDDCE"/>
<path fill-rule="evenodd" clip-rule="evenodd" d="M32.5928 49.1745L48.1307 54.0949C48.8947 54.7478 48.031 61.4041 47.516 61.1891H34.9928H29.4536V50.2334C29.4536 48.0757 30.6246 48.5534 32.5928 49.1745Z" fill="#FFE07D"/>
<path fill-rule="evenodd" clip-rule="evenodd" d="M55.3723 61.1891H54.0686H47.5163C43.2976 61.1891 43.1731 54.4851 48.131 54.095L55.3726 53.5376L57.3158 57.4788L55.3723 61.1891Z" fill="#FFECE4"/>
<path fill-rule="evenodd" clip-rule="evenodd" d="M69.4154 47.3749L72.0146 45.2333C78.5256 39.859 86.7553 48.9275 78.0521 54.3417L70.7273 58.8959L67.04 61.1888H55.3719V53.5373L62.6217 52.9721L69.4154 47.3749Z" fill="#FF8086"/>
<path fill-rule="evenodd" clip-rule="evenodd" d="M55.3723 61.1891V57.4788H53.8193H52.9805H51.6683H45.1161C44.867 57.4788 44.6344 57.4628 44.4103 57.4151C44.1695 59.2624 45.2573 61.1891 47.5163 61.1891H54.0686H55.3723Z" fill="#FFDDCE"/>
<path fill-rule="evenodd" clip-rule="evenodd" d="M78.0522 54.3416C83.3174 51.0613 82.3872 46.4513 79.3893 44.5086C79.6301 46.499 78.6419 48.7841 75.6522 50.6392L69.9469 54.1822L68.3358 55.1934L64.6485 57.4785H55.3723V61.1888H67.0403L70.7276 58.8958L78.0522 54.3416Z" fill="#F76672"/>
<path fill-rule="evenodd" clip-rule="evenodd" d="M48.1306 54.095L41.8772 52.1203C39.7845 54.2701 38.7712 58.458 40.1168 61.1888H45.9715H47.516C45.2572 61.1888 44.1691 59.2621 44.4099 57.4148C44.6262 55.8148 45.8303 54.278 48.1306 54.095Z" fill="#FFC269"/>
<path d="M142.039 40.6044H116.602C112.213 40.6044 108.641 44.0273 108.641 48.2349V76.2819H99.1268C99.6557 74.4405 99.8516 72.2685 99.723 69.741V69.7407C99.5165 59.0592 97.4932 50.0569 93.709 42.9838C90.7705 37.4922 87.3413 34.1998 84.3987 32.2316C87.8525 28.8298 89.8494 23.9904 89.8494 18.409C89.8494 8.3669 81.4872 0.197296 71.209 0.197296C60.9308 0.197296 52.5686 8.3669 52.5686 18.409C52.5686 19.5718 53.5523 20.514 54.7658 20.514H56.2588C56.1214 21.3082 56.0481 22.1176 56.0481 22.9397C56.0481 30.0167 61.3269 35.9315 68.306 37.257C67.5744 39.8593 67.2108 42.9277 67.2123 46.4134L61.732 50.9289L48.3976 51.962L33.0158 47.0909C31.6061 46.6419 30.0082 46.1344 28.6219 47.092C27.2558 48.0364 27.2558 49.6898 27.2558 50.2329V61.1882C27.2558 62.351 28.2395 63.2932 29.453 63.2932H32.0689L28.0567 76.5749C27.7195 77.6914 28.391 78.8589 29.5567 79.1819C30.723 79.5066 31.9409 78.8617 32.2784 77.7452L36.6442 63.2932H42.8909C35.1214 85.9903 39.5546 101.141 46.3688 116.473H42.4189L25.9679 98.852L29.4466 87.3395C29.7841 86.2227 29.1126 85.0555 27.9469 84.7324C26.7812 84.4094 25.5627 85.0527 25.2252 86.1691L21.8979 97.1812C11.6071 97.0167 2.40205 103.814 0.0562533 113.593C-0.215329 114.725 0.522659 115.855 1.70479 116.115L4.82403 116.803C4.02715 124.732 9.47783 132.213 17.7905 134.046C19.0529 134.324 20.3262 134.462 21.5906 134.462C24.709 134.462 27.7726 133.624 30.4822 131.997C33.6624 130.088 36.0319 127.282 37.3143 123.965L39.7755 124.508C40.5088 124.67 41.2043 124.752 41.8992 124.394C42.5458 124.06 42.9756 123.458 43.1367 122.779C43.2914 122.09 43.4092 121.39 43.4909 120.683H89.4454C90.9149 129.436 98.6889 136.034 107.973 136.034C117.258 136.034 125.032 129.436 126.502 120.683H128.178L128.372 120.685C128.44 120.686 128.511 120.687 128.587 120.687C129.215 120.687 130.123 120.62 130.868 119.894C131.241 119.53 131.679 118.88 131.645 117.847C131.583 115.87 131.274 113.96 130.745 112.145C132.495 101.966 130.811 95.7667 128.315 90.915C129.893 89.924 130.94 88.2165 130.94 86.2766V80.4915H142.038C146.428 80.4915 149.999 77.0686 149.999 72.861V48.2346C150 44.0273 146.429 40.6044 142.039 40.6044ZM28.1487 128.431C25.3359 130.12 22.0078 130.656 18.777 129.944H18.7767C12.83 128.633 8.8626 123.409 9.15176 117.76L32.9856 123.015C31.9995 125.239 30.3311 127.121 28.1487 128.431ZM39.1433 120.049L4.96407 112.514C7.60166 105.595 14.6997 101.015 22.4584 101.409L39.2019 119.343C39.1872 119.579 39.1679 119.815 39.1433 120.049ZM72.3322 83.3685C71.6944 84.98 71.6944 86.9667 71.6944 89.7169V97.66H63.6486V86.7627C63.6486 74.4425 70.6676 72.2469 73.8176 71.8846H95.3593C95.2726 74.6808 94.614 76.6684 93.3636 77.9299C91.9063 79.4 89.4129 80.1162 85.7402 80.1196L77.8532 80.1274C75.0407 80.1277 73.1833 81.2178 72.3322 83.3685ZM71.6944 101.87V106.896C71.6745 106.896 71.654 106.896 71.6329 106.896H56.0256C56.2011 105.337 56.7079 104.131 57.5402 103.296C58.7783 102.055 60.5221 101.87 61.4514 101.87H71.6944ZM95.2623 67.675H75.2798C74.4773 65.2561 73.7619 62.6072 73.1736 59.8849L79.2489 56.1073C82.5653 54.0442 84.2906 51.129 83.9824 48.1089C83.7094 45.4317 81.8095 43.0402 79.1423 42.0167C76.7065 41.0821 74.0848 41.3756 71.7677 42.7949C71.9587 40.7815 72.3144 38.9842 72.8288 37.4585C73.7654 37.3659 74.6956 37.1905 75.6091 36.9332C77.4686 36.5195 79.1868 35.8602 80.7381 34.986C84.97 37.408 94.2776 45.2641 95.2623 67.675ZM57.1239 16.3044C58.1602 9.57877 64.0816 4.40741 71.209 4.40741C79.0641 4.40741 85.4549 10.6888 85.4549 18.4093C85.4549 24.6887 82.3116 29.7498 77.2433 31.9771V20.9015C77.2433 18.9838 76.4771 16.6314 72.8285 16.3131C72.7623 16.3072 72.6958 16.3044 72.6293 16.3044H57.1239ZM60.443 22.9399C60.443 22.1092 60.5417 21.2978 60.7359 20.5142H72.5215C72.6571 20.5283 72.7561 20.5434 72.827 20.5572C72.8385 20.6352 72.8484 20.7475 72.8484 20.9015V33.2156C72.3249 33.2894 71.7981 33.3267 71.2717 33.327C71.2667 33.327 71.2617 33.327 71.257 33.327C65.2934 33.3217 60.443 28.6642 60.443 22.9399ZM57.5944 55.4735L62.7987 55.0702C63.2625 55.0346 63.7022 54.8586 64.0553 54.5681L73.4478 46.8291L73.4493 46.8277C74.3575 46.078 75.327 45.6935 76.2709 45.6935C76.691 45.6935 77.1061 45.7699 77.5084 45.9242C78.6694 46.3696 79.4938 47.3878 79.6093 48.5178C79.7543 49.9398 78.7764 51.3813 76.8565 52.5758L66.3902 59.0836H57.595V55.4735H57.5944ZM48.3085 56.1931L53.1999 55.8143V59.0842H47.516C46.7792 59.0842 46.5996 58.4976 46.5785 58.0056C46.5665 57.7266 46.594 56.3279 48.3085 56.1931ZM43.108 54.7399C42.4462 55.7794 42.1371 56.9955 42.1878 58.1779C42.201 58.4841 42.2417 58.7791 42.2985 59.0665C42.2985 59.0724 42.295 59.0783 42.2962 59.0839H31.6509V51.0928L43.1165 54.7236C43.113 54.7292 43.1112 54.7346 43.108 54.7399ZM47.5283 63.2937H67.0403C67.4648 63.2937 67.8806 63.1758 68.2365 62.9544L69.2311 62.3358C69.7096 64.3616 70.2545 66.3329 70.848 68.1948C66.3668 69.462 59.2538 73.557 59.2538 86.7624V97.8711C57.7122 98.1691 55.8885 98.8578 54.363 100.387C52.7549 101.999 51.8364 104.184 51.6161 106.895H47.1835C42.7169 94.5638 41.0183 81.4415 47.5283 63.2937ZM51.15 116.466C50.3379 114.677 49.5551 112.895 48.818 111.105H71.6326C74.5895 111.105 76.0887 109.816 76.0887 107.273V99.7646V91.8215H93.4321C94.6459 91.8215 95.6294 90.8794 95.6294 89.7166C95.6294 88.5538 94.6459 87.6117 93.4321 87.6117H76.1045C76.1326 86.4161 76.2126 85.4383 76.4414 84.8607C76.5524 84.5798 76.6485 84.3373 77.8553 84.3373L85.7443 84.3294C90.6852 84.3249 94.2199 83.1799 96.5505 80.8285C96.6583 80.7196 96.7602 80.6054 96.8625 80.4917H110.839H126.546V86.2769C126.546 87.0004 125.91 87.6117 125.156 87.6117H103.282C102.068 87.6117 101.084 88.5538 101.084 89.7166C101.084 90.8794 102.068 91.8215 103.282 91.8215H123.865C125.602 94.9096 127.164 98.752 127.071 104.823C122.724 99.0383 115.687 95.3188 107.7 95.3188C101.285 95.3188 95.2667 97.729 90.7517 102.106C86.7454 105.989 84.3392 111.03 83.8441 116.473L51.15 116.466ZM107.974 131.824C101.105 131.824 95.3115 127.083 93.91 120.684H122.037C120.635 127.083 114.842 131.824 107.974 131.824ZM124.533 116.474H91.4145H88.2577C89.3364 106.956 97.6438 99.5286 107.7 99.5286C116.528 99.5286 123.942 105.106 126.398 112.913C126.406 112.937 126.414 112.962 126.422 112.986C126.77 114.106 127.015 115.272 127.148 116.474H124.533ZM145.605 72.8613C145.605 74.7476 144.006 76.2819 142.039 76.2819H113.036V65.4118H145.605V72.8613ZM145.605 61.202H113.036V56.7253H145.605V61.202ZM145.605 52.5154H113.036V48.2349C113.036 46.3486 114.636 44.8142 116.602 44.8142H142.039C144.006 44.8142 145.605 46.3489 145.605 48.2349V52.5154Z" fill="black"/>
</svg>
